<?xml version="1.0" encoding="UTF-8" standalone="no"?>
<!-- Created with Inkscape (http://www.inkscape.org/) -->

<svg
   xmlns:dc="http://purl.org/dc/elements/1.1/"
   xmlns:cc="http://creativecommons.org/ns#"
   xmlns:rdf="http://www.w3.org/1999/02/22-rdf-syntax-ns#"
   xmlns:svg="http://www.w3.org/2000/svg"
   xmlns="http://www.w3.org/2000/svg"
   xmlns:sodipodi="http://sodipodi.sourceforge.net/DTD/sodipodi-0.dtd"
   xmlns:inkscape="http://www.inkscape.org/namespaces/inkscape"
   id="svg2"
   sodipodi:docname="logo.svg"
   viewBox="0 0 668.25 419.76"
   sodipodi:version="0.32"
   version="1.0"
   inkscape:output_extension="org.inkscape.output.svg.inkscape"
   inkscape:version="0.91 r13725">
  <sodipodi:namedview
     id="base"
     bordercolor="#666666"
     inkscape:pageshadow="2"
     guidetolerance="10"
     pagecolor="#ffffff"
     gridtolerance="10000"
     inkscape:zoom="1.4"
     objecttolerance="10"
     showgrid="false"
     borderopacity="1.0"
     inkscape:current-layer="layer1"
     inkscape:cx="280.31878"
     inkscape:cy="-17.215894"
     inkscape:pageopacity="0.0"
     inkscape:document-units="px"
     inkscape:window-width="1440"
     inkscape:window-height="783"
     inkscape:window-x="0"
     inkscape:window-y="181"
     inkscape:window-maximized="1" />
  <defs
     id="defs4" />
  <g
     id="layer1"
     inkscape:label="Layer 1"
     inkscape:groupmode="layer"
     transform="translate(37.386 -314.98)">
    <path
       inkscape:connector-curvature="0"
       d="m 302.63441,358.83028 c -5.98624,9.60021 -11.20133,22.46802 -18.27242,30.15995 -6.6463,-7.3717 -8.99897,-25.95128 -22.17393,-24.043 -15.54071,7.75075 -24.71613,25.17359 -38.70799,33.33606 -4.54197,-7.37824 -17.32482,-7.31289 -16.78893,2.9343 -1.75144,6.48292 1.19594,20.13495 -10.09035,13.69125 -10.19491,-1.13059 -24.45472,-11.27976 -32.87859,-3.09769 -2.82974,7.37171 16.73664,17.98487 0.71233,14.71727 -17.02419,-0.69273 -34.27058,-3.60089 -51.24903,-2.08473 -8.97937,6.8881 4.76416,16.25958 8.69835,22.57912 -16.65169,-3.14997 -34.603887,-12.79592 -51.230743,-11.49542 -7.525936,8.60686 8.70554,18.29856 12.699201,26.08198 10.77001,8.97283 -8.946689,5.06478 -14.612707,6.19537 -9.023151,1.52271 -25.957815,-3.07808 -29.312986,7.74422 -1.207705,6.22151 17.038573,8.42387 6.3496,8.39773 -9.319195,1.39853 -29.440422,-5.42422 -30.70433,7.82263 5.371542,10.07075 22.556896,12.86781 28.530069,19.15467 -10.729491,1.69262 -6.66329,14.88719 3.304851,14.18139 16.119724,0.28101 3.332952,3.30027 -5.207248,6.313 -6.892675,1.37239 -22.468671,8.97283 -11.14513,15.28583 8.736909,3.52901 26.684529,1.6338 30.182821,4.23481 -15.575995,6.11695 -34.83523,6.82929 -47.839624,17.27907 -0.921986,11.7699 18.520103,8.36506 26.268236,10.51514 7.659908,0.4836 21.374679,1.05217 7.045599,5.05171 -9.955723,0.77115 -18.331889,17.35095 -3.740095,16.63208 6.549578,0.29409 28.048425,-6.37182 23.484242,-1.14366 -7.567762,9.03818 -24.862515,14.05722 -25.572238,26.65055 10.28183,7.58083 26.36169,0.42479 38.619764,1.14366 5.662751,0.3529 29.516228,-5.16935 17.04707,1.71222 -8.463084,2.67943 -14.278105,17.99141 -0.607774,16.46217 14.495072,-2.05205 31.630372,-7.90106 44.445892,-8.3912 -2.36574,7.85531 -15.66487,17.9718 -7.65272,25.67027 14.04415,-0.79076 24.35016,-14.14871 37.05459,-19.39648 0.085,9.66557 -11.98556,23.93191 -1.47696,30.56513 21.31783,-6.65283 40.80579,-20.82114 60.71201,-28.8529 1.58805,7.10376 -3.52901,25.30429 9.39108,23.31106 9.82894,-4.86873 19.33112,-15.05711 27.48705,-18.74949 3.76428,7.75728 -2.60754,29.38879 12.52798,25.9186 9.74399,-3.61397 8.00562,-24.38283 20.63163,-15.44921 14.05068,2.89509 28.92479,15.18127 43.21074,11.12944 3.03887,-10.69812 -4.36551,-21.77528 -4.69881,-32.68253 18.194,4.82297 35.46653,12.89395 54.01343,16.29879 11.46928,-1.62727 -5.39154,-19.33113 7.45013,-9.37148 6.98613,4.84258 24.58542,16.37721 26.82046,1.8756 1.97363,-9.81587 0.50321,-19.88661 1.99977,-29.74823 12.54105,0.6862 25.91207,9.45644 37.92377,4.97329 5.94049,-8.03176 -12.3646,-15.65181 -10.86804,-19.40301 18.8998,0.73848 38.99554,9.26038 57.23528,5.54185 3.07154,-8.61993 -5.09746,-17.41631 -7.30635,-25.67027 12.30578,-0.77115 27.7746,6.95346 38.00872,3.17611 5.1432,-10.22759 -10.27333,-19.7167 -13.61936,-29.02282 0.42479,-7.69847 38.70146,3.14996 30.3168,-11.89407 -8.84866,-3.7512 -18.11558,-6.75739 -26.61134,-11.16212 12.93316,-2.71211 27.02305,0.3333 39.40072,-3.58782 4.57464,-12.31232 -40.28297,-15.91975 -20.26565,-21.27208 8.17553,-4.64653 26.88581,-2.03245 27.57201,-13.52786 -7.7965,-9.99232 -26.28458,-4.79684 -34.70845,-7.74421 9.86162,-6.73126 27.17336,-7.05149 32.18586,-18.42273 -5.11053,-11.16866 -23.53326,-5.3654 -33.74777,-8.1494 -4.4178,-1.5227 -27.291,0.75155 -21.14138,-3.42444 5.87515,-4.6596 23.18689,-7.94027 17.83456,-17.68425 -9.56753,-4.80338 -27.00344,4.90793 -32.53222,1.8756 19.53371,-8.93362 10.10342,-21.67072 -8.52844,-14.58003 -6.50906,-0.38558 -34.46664,6.05813 -16.69743,-2.94738 9.10353,-1.94749 11.41046,-16.32493 -0.43133,-13.7762 -13.6651,1.92135 -29.15352,9.02511 -40.6228,11.00528 5.70523,-8.72449 24.16717,-14.25327 20.70351,-25.99703 -13.24031,-4.71188 -29.38225,8.60686 -40.53131,7.00574 -3.83616,-11.60652 -1.56191,-26.42182 -9.65902,-36.18541 -17.22679,1.73837 -34.068,18.58611 -49.31462,19.88662 -3.35256,-10.48246 -16.64516,-0.13071 -21.31129,4.15638 -11.97248,-10.60663 -21.21979,-24.89911 -34.7934,-33.33605 l -2.4507,1.24169 -0.76462,0.38557 z"
       style="opacity:0.87190001;fill:#ffd42a"
       id="path3768" />
    <path
       inkscape:connector-curvature="0"
       d="m 502.10371,618.3041 c 0,0 -5.7132,-1.0136 -13.00775,-2.24851 -3.71229,-0.62551 -7.55431,-1.45989 -12.01326,-2.21612 -4.08609,-0.69589 -8.7891,-1.31363 -12.87424,-1.99947 -4.45895,-0.75623 -7.8222,-1.37964 -11.53449,-2.00514 -7.29455,-1.23492 -12.67035,-2.7625 -12.67035,-2.7625 0,0 2.37876,3.44049 5.78617,7.08206 1.81588,1.94029 3.10535,3.55313 5.16565,5.75053 2.06124,2.20743 5.09974,4.45931 6.89651,6.39157 3.40741,3.64157 6.96543,6.34339 6.96543,6.34339 0,0 -6.1985,-0.70649 -12.84261,-2.05368 -3.51898,-0.71783 -7.57219,-1.65066 -11.57777,-2.46701 -4.02469,-0.82439 -7.7802,-1.3234 -11.31735,-2.03922 -6.64505,-1.35724 -11.28954,-2.72197 -11.28954,-2.72197 0,0 -0.77078,3.13844 -0.94958,7.49995 -0.11039,2.15264 0.13326,4.16481 0.0154,6.82549 -0.11068,2.34542 -0.4278,5.23095 -0.54443,7.7089 -0.11663,2.47794 0.0218,5.13066 -0.0879,7.48612 -0.11786,2.66068 -0.11511,5.23706 -0.2255,7.38969 -0.1788,4.36152 -0.54825,7.08037 -0.54825,7.08037 0,0 -3.56326,-1.77811 -8.22139,-4.85574 -2.46757,-1.64528 -5.51894,-4.2305 -8.3199,-6.10279 -2.81819,-1.86024 -6.48013,-3.51588 -8.94676,-5.15112 -4.65813,-3.07763 -6.39109,-6.09223 -6.39109,-6.09223 0,0 0.37509,3.61064 2.08805,7.19553 0.9856,2.09269 2.02536,3.78378 3.01096,5.87647 1.69479,3.58689 3.17621,7.24803 3.17621,7.24803 0,0 -3.44135,-1.45679 -9.48364,-3.63115 -2.98292,-1.0711 -5.92421,-2.48157 -9.60962,-3.79985 -3.26774,-1.17159 -7.22326,-2.8253 -10.66208,-4.05918 -3.42065,-1.23589 -7.70881,-1.73705 -10.97655,-2.90863 -3.68635,-1.32833 -6.7185,-2.72878 -9.70142,-3.79988 -6.04229,-2.17437 -10.0918,-3.65541 -10.0918,-3.65541 0,0 0.59468,3.21109 1.48747,7.83997 0.4583,2.34356 0.66319,5.31357 1.22023,8.12303 0.5,2.59257 1.53577,5.02464 2.03577,7.61722 0.55798,2.8195 0.66824,5.75936 1.12749,8.11296 0.91001,4.61684 1.52693,7.67331 1.52693,7.67331 0,0 -3.20193,-1.05711 -9.09009,-3.34991 -2.99139,-1.16147 -6.52989,-2.8713 -10.13008,-4.25984 -3.29721,-1.29008 -6.8874,-2.96377 -10.18461,-4.25384 -3.60019,-1.38855 -6.77424,-2.54003 -9.76563,-3.7015 -5.88722,-2.28276 -10.55929,-3.74589 -10.55929,-3.74589 0,0 -1.9107,2.53369 -4.20003,6.90468 -1.16815,2.22867 -2.53615,5.06773 -3.93832,7.73811 -1.27654,2.4435 -2.54992,5.31272 -3.82552,7.76626 -1.40311,2.66034 -3.32075,4.72816 -4.48891,6.95682 -2.27115,4.36899 -2.86144,7.67012 -2.86144,7.67012 0,0 0.24031,-3.31327 -0.0728,-8.02633 -0.16284,-2.32541 -1.15038,-5.02655 -1.34586,-7.89616 -0.18354,-2.5463 -0.10731,-4.86763 -0.28491,-7.54646 -0.17666,-2.66879 -0.56886,-5.09065 -0.73329,-7.62892 -0.19547,-2.8696 -0.38972,-5.92195 -0.55256,-8.24735 -0.31315,-4.71306 -0.32355,-8.5465 -0.32355,-8.5465 0,0 -3.40366,2.66784 -7.43295,6.1046 -2.05772,1.7485 -4.32846,3.96683 -6.79409,6.06462 -2.26168,1.92314 -4.26988,3.8082 -6.53156,5.73134 -2.44841,2.08575 -5.51502,3.84401 -7.57275,5.5925 -4.02928,3.43677 -6.09036,6.12907 -6.09036,6.12907 0,0 0.11821,-2.26509 -0.0357,-6.06243 -0.0707,-1.92979 -0.65714,-4.26936 -0.76358,-6.5807 -0.0895,-2.1306 -0.88185,-4.90398 -0.97041,-7.02454 -0.0883,-2.31334 1.0182,-4.22073 0.92934,-6.14851 -0.1539,-3.79733 -1.57904,-5.48651 -1.57904,-5.48651 0,0 -1.7852,1.13007 -8.25712,4.75495 -3.19194,1.79237 -8.49495,4.56813 -12.43725,6.77798 -3.48958,1.94692 -7.63061,3.4077 -11.31162,5.46701 -3.68101,2.05931 -8.04498,4.86344 -11.53363,6.8204 -3.96047,2.21185 -5.82894,4.02064 -9.02089,5.81301 -6.47192,3.62487 -11.3172,5.99513 -11.3172,5.99513 0,0 1.18963,-3.76284 2.44372,-8.4052 0.64239,-2.3533 0.57382,-5.04416 1.33743,-7.86732 0.71067,-2.6043 1.47686,-4.6162 2.18753,-7.22049 0.7636,-2.82317 2.24628,-5.61401 2.8705,-7.96532 1.25503,-4.63231 1.92954,-8.60212 1.92954,-8.60212 0,0 -3.71759,2.84446 -8.81718,6.4195 -2.51579,1.75842 -5.48114,4.20548 -8.58187,6.38343 -2.75704,1.92702 -5.51755,3.62111 -8.41244,5.64449 -2.89395,2.03342 -5.64263,2.87407 -8.39967,4.8011 -3.10073,2.17794 -6.56067,6.00845 -9.07553,7.7769 -5.10052,3.565 -8.82482,5.16244 -8.82482,5.16244 0,0 2.48346,-2.49539 4.86806,-6.63341 1.16692,-2.04593 1.79085,-4.20446 3.24347,-6.72823 1.27719,-2.24069 3.10485,-4.87682 4.46256,-7.23796 1.35864,-2.35111 2.73546,-4.70422 4.01359,-6.93486 1.45263,-2.52378 2.5688,-4.52353 3.73572,-6.56946 2.3846,-4.13803 3.6198,-6.43495 3.6198,-6.43495 0,0 -3.54521,0.17777 -10.60794,1.80846 -3.48593,0.81034 -8.72682,1.11417 -13.0211,2.11506 -3.81022,0.87651 -7.43988,2.5041 -11.44717,3.43278 -4.00729,0.92867 -7.52239,1.42774 -11.3326,2.30426 -4.294284,1.00089 -8.645555,2.37326 -12.113314,3.18159 -7.062727,1.63069 -11.817907,2.61138 -11.817907,2.61138 0,0 4.085451,-2.64156 9.06406,-6.52788 2.63389,-2.06562 4.745428,-4.61131 7.756529,-6.96197 3.011101,-2.35067 6.788972,-3.96416 9.422862,-6.02978 4.97861,-3.88632 7.9893,-7.22095 7.9893,-7.22095 0,0 -3.90772,0.22788 -11.30766,1.00303 -3.654543,0.38257 -7.356368,1.04425 -11.865953,1.51093 -3.999817,0.42063 -9.409908,0.68225 -13.628734,1.11688 -4.199714,0.44266 -8.146249,1.04002 -12.147006,1.45061 -4.508645,0.47672 -9.340392,0.24851 -12.994933,0.63108 -7.399943,0.77516 -12.581852,1.90433 -12.581852,1.90433 0,0 2.277561,-2.92919 6.675298,-6.5486 2.182108,-1.79264 5.780781,-3.1632 8.456956,-5.36535 2.369772,-1.94521 5.438508,-4.46454 7.926078,-6.52417 2.506683,-2.05159 4.63645,-4.01092 7.005281,-5.96616 2.676176,-2.20215 5.369288,-4.22358 7.533223,-6.01421 4.397737,-3.61941 7.449242,-6.12669 7.449242,-6.12669 0,0 -6.045479,0.53454 -14.31423,1.63879 -4.206595,0.56516 -9.115622,1.4715 -14.156267,2.14889 -4.641792,0.62327 -8.862149,1.43341 -13.503941,2.05669 -5.023413,0.66534 -10.852353,1.55136 -15.058948,2.11652 -8.26875,1.10425 -13.952074,1.19309 -13.952074,1.19309 0,0 5.31594,-1.85405 12.224999,-4.92859 3.508106,-1.55332 7.850262,-3.21888 12.062682,-5.0933 3.878436,-1.71588 7.352022,-3.83349 11.229517,-5.5594 4.195189,-1.86239 8.809047,-2.97966 12.316212,-4.54302 6.91,-3.06451 11.273683,-5.67586 11.273683,-5.67586 0,0 -5.169144,0.28578 -12.971818,-0.10186 -3.837263,-0.19581 -8.546213,-0.68101 -13.286157,-0.90919 -4.206357,-0.21599 -8.336318,-0.9882 -12.762626,-1.20023 -4.427249,-0.22207 -9.623681,-0.22747 -13.829097,-0.43342 -4.759057,-0.23622 -9.2965767,-0.26353 -13.1338396,-0.45934 -7.8017327,-0.3776 -12.9154758,-0.67616 -12.9154758,-0.67616 0,0 5.5650597,-1.54675 13.0858037,-3.77572 3.6259606,-1.07939 7.3503107,-2.08846 11.9234147,-3.4447 3.948359,-1.16565 8.785876,-2.83508 13.091097,-4.11108 4.109089,-1.21379 8.479236,-1.79698 12.587383,-3.02082 4.305222,-1.27599 7.229634,-2.59251 11.177053,-3.7682 4.591276,-1.35825 10.328945,-3.21821 13.974019,-4.28955 7.502571,-2.22698 12.937953,-3.39423 12.937953,-3.39423 0,0 -6.03742,-0.35905 -13.108491,-0.77661 -3.489164,-0.20375 -6.568888,-1.13231 -10.870812,-1.38849 -3.821913,-0.22793 -7.929234,-0.17079 -11.953867,-0.40681 -4.00646,-0.23803 -8.724706,0.3531 -12.528447,0.12316 -4.301924,-0.25617 -8.467288,-1.01433 -11.957393,-1.22812 -7.071072,-0.41756 -11.7505585,-0.78428 -11.7505585,-0.78428 0,0 4.4916505,-1.24583 12.4181285,-3.65141 4.016345,-1.22386 9.687616,-2.81275 14.507606,-4.27736 4.445897,-1.34222 8.569983,-2.98374 13.014939,-4.336 4.81999,-1.46462 9.307877,-2.7506 13.324222,-3.97446 7.908305,-2.40358 14.120986,-4.09273 14.120986,-4.09273 0,0 -5.253772,-0.0295 -13.411074,0.10887 -4.143666,0.0611 -9.5487,0.76856 -14.516712,0.84957 -4.565396,0.067 -9.452012,-0.55074 -14.03558,-0.48168 -4.968012,0.081 -9.304047,0.24452 -13.447713,0.30566 -8.157302,0.13839 -13.7315339,0.80358 -13.7315339,0.80358 0,0 4.9523769,-2.99072 12.3612629,-5.2378 3.962769,-1.20781 8.930134,-1.49163 13.429607,-2.84991 4.48036,-1.36631 8.703777,-2.92747 12.648373,-4.13328 7.427059,-2.24908 13.201073,-4.11305 13.201073,-4.11305 0,0 -4.804574,-1.11376 -10.555873,-4.10132 -2.933461,-1.52291 -5.845099,-4.1844 -9.356665,-5.99864 -3.223925,-1.68364 -6.641274,-4.45169 -9.864257,-6.12529 -3.512507,-1.82428 -6.115926,-2.17639 -9.031214,-3.7013 -5.7513,-2.98756 -10.4291329,-5.68768 -10.4291329,-5.68768 0,0 5.5070069,0.77258 12.6131309,0.7805 3.616666,-0.003 7.342014,-0.41372 11.656759,-0.41257 3.984819,0.007 9.185604,-0.33289 13.169482,-0.33585 4.333858,0.009 7.416699,0.7751 11.033365,0.77205 7.106124,0.008 12.688586,0.21423 12.688586,0.21423 0,0 -5.111738,-2.23636 -11.434147,-4.461 -3.360484,-1.18165 -6.831001,-2.94969 -10.647383,-4.29412 -3.816381,-1.34443 -8.317318,-2.1569 -11.677802,-3.33855 -6.304237,-2.22664 -10.806524,-4.03311 -10.806524,-4.03311 0,0 5.804238,-0.36593 13.067622,-0.6391 3.568089,-0.12958 6.971038,-0.45398 11.398876,-0.61746 3.915247,-0.14755 8.083377,0.0524 12.200402,-0.0971 4.117025,-0.1495 8.33244,-0.2287 12.229514,-0.37425 4.427839,-0.16348 8.298272,-0.3974 11.865419,-0.53701 7.263384,-0.27317 13.025984,-0.29974 13.025984,-0.29974 0,0 -3.05737,-3.04106 -6.074393,-6.82711 -1.496603,-1.8639 -2.473675,-3.27786 -4.306202,-5.59166 -1.640746,-2.03061 -3.775969,-4.63567 -5.500697,-6.77876 -1.706555,-2.14509 -3.072482,-3.79008 -4.714169,-5.83073 -1.831586,-2.30376 -3.549489,-5.15771 -5.027919,-7.02362 -3.035196,-3.78404 -5.975946,-6.16843 -5.975946,-6.16843 0,0 4.173243,1.23408 10.480893,3.10529 3.116068,0.92456 7.700691,2.04227 11.552772,3.17988 3.399946,1.01499 6.523836,1.82709 10.11209,2.89233 3.57009,1.06725 7.16305,2.1827 10.563,3.19769 3.85208,1.1376 7.55095,2.40369 10.66702,3.32824 6.30765,1.87121 10.47307,3.21774 10.47307,3.21774 0,0 -2.47896,-2.94251 -5.90613,-6.79493 -1.82718,-2.06079 -3.86401,-4.59554 -5.93748,-6.9335 -2.07348,-2.33797 -3.5275,-4.53118 -5.35373,-6.58193 -3.42811,-3.86246 -6.73925,-6.67266 -6.73925,-6.67266 0,0 4.97313,0.95316 12.08119,1.56953 3.49857,0.30416 7.29884,0.30116 11.63023,0.67582 3.83227,0.33838 7.5906,0.86751 11.62559,1.21398 4.03592,0.35651 9.26399,0.3077 13.09626,0.64608 4.33138,0.37466 6.81765,1.04402 10.31622,1.34817 7.10807,0.61637 12.21711,0.86473 12.21711,0.86473 0,0 -1.91216,-2.77167 -5.0241,-6.39509 -1.66768,-1.92619 -3.27214,-4.54918 -5.16607,-6.73449 -1.87669,-2.19734 -5.06521,-3.89503 -6.71472,-5.82323 -3.13012,-3.62141 -4.88901,-5.93319 -4.88901,-5.93319 0,0 4.14372,0.52722 10.1302,2.30196 3.04056,0.90244 7.46892,2.89966 11.11358,3.97898 3.36172,0.99891 6.44827,1.21661 9.80998,2.21553 3.64466,1.07931 7.10289,2.12846 10.14344,3.0309 6.00466,1.77273 10.36998,3.09723 10.36998,3.09723 0,0 -0.21371,-3.45597 0.0177,-7.84358 0.12198,-2.22493 0.7672,-4.54811 0.90135,-7.23088 0.13669,-2.45987 0.20097,-5.1045 0.33672,-7.57441 0.13509,-2.67272 -0.0381,-5.10858 0.0829,-7.34355 0.23143,-4.3876 0.56795,-7.45788 0.56795,-7.45788 0,0 2.33236,3.14127 5.07991,6.79471 1.61475,2.14507 3.23109,4.503 4.8449,6.63802 2.7485,3.66348 5.00152,6.15411 5.00152,6.15411 0,0 2.76451,-2.43507 6.72417,-6.61485 1.95492,-2.06178 4.67121,-4.22778 7.09544,-6.76736 2.13882,-2.25451 3.08262,-4.72219 5.33924,-7.09113 2.25663,-2.36894 5.66034,-4.44841 7.79917,-6.70292 2.42329,-2.54962 4.8497,-5.2619 6.80462,-7.32368 3.97878,-4.17174 5.13876,-6.68355 5.13876,-6.68355 0,0 0.98401,1.87983 3.11935,5.66163 1.09681,1.90797 3.64153,4.37659 4.94047,6.6782 1.20743,2.10882 3.50867,4.33037 4.71705,6.44923 1.29894,2.30161 2.0173,4.67737 3.09688,6.59739 2.13439,3.77175 3.3046,6.4629 3.3046,6.4629 0,0 1.47391,-2.68844 3.78488,-6.82849 1.16222,-2.09613 2.55815,-4.4412 3.95531,-6.96901 1.30696,-2.31498 2.71571,-4.91507 4.00449,-7.22804 1.3981,-2.51777 3.64214,-5.41283 4.80342,-7.519 2.31191,-4.13002 3.4092,-6.91896 3.4092,-6.91896 0,0 2.79161,2.36025 6.08057,5.91343 1.6144,1.74948 3.02014,3.6234 5.00399,5.78864 1.77766,1.92422 3.13958,4.31019 5.00028,6.33685 1.85976,2.01661 3.77403,4.02722 5.55075,5.9414 2.00296,2.17328 3.92911,3.91882 5.56168,5.66629 3.27174,3.56523 5.23459,5.70236 5.23459,5.70236 0,0 3.30409,-1.96705 7.73723,-5.6005 2.25009,-1.85085 5.62023,-4.48456 8.33181,-6.70077 2.47034,-2.04758 3.88891,-3.56331 6.36019,-5.60086 2.71064,-2.22624 5.0503,-4.49275 7.3004,-6.3436 4.43314,-3.63345 9.10011,-6.33911 9.10011,-6.33911 0,0 -2.4323,3.43318 -5.32131,7.87028 -1.54037,2.37114 -3.10515,5.06959 -4.85447,7.75795 -1.73116,2.68636 -3.48895,5.28435 -5.02932,7.65549 -2.87084,4.43509 -5.22198,7.95062 -5.22198,7.95062 0,0 4.26941,-2.2459 10.25603,-5.56367 3.05503,-1.68598 5.34894,-4.04888 9.01554,-6.06603 3.35079,-1.8606 8.01093,-3.8554 11.37989,-5.718 3.64749,-2.02519 6.25574,-3.58076 9.31077,-5.26673 5.98662,-3.31777 10.6016,-5.79452 10.6016,-5.79452 0,0 -0.76637,3.38142 -0.01,7.53836 0.35739,2.05035 2.07018,3.87013 2.52818,6.40646 0.41161,2.23712 -0.3257,4.75306 0.0972,7.11066 0.42384,2.36765 2.01542,4.65729 2.40885,6.89641 0.45801,2.53634 0.74677,4.44209 1.12232,6.49044 0.73765,4.1489 2.50566,6.75386 2.50566,6.75386 0,0 4.25318,-1.63546 11.85567,-4.16763 4.04234,-1.33832 8.79281,-2.3692 13.36809,-3.89814 4.5944,-1.52091 9.17309,-3.40528 13.19631,-4.75163 7.60249,-2.53217 11.97753,-4.43467 11.97753,-4.43467 0,0 -1.76774,3.47151 -6.3158,7.83788 -2.30708,2.22234 -5.11828,4.55097 -7.88026,7.20893 -2.56085,2.4532 -4.96632,4.60523 -7.509,7.05642 -2.78015,2.65997 -5.14575,5.6293 -7.45377,7.8416 -4.54806,4.36637 -7.67408,7.44995 -7.67408,7.44995 0,0 3.91543,-1.51706 11.18205,-3.91077 3.50752,-1.16777 7.87696,-2.54214 12.29433,-3.99281 3.82898,-1.26407 7.9393,-2.6606 12.08879,-4.03102 3.97154,-1.31022 7.92489,-2.61843 11.91366,-3.9407 4.15043,-1.36037 9.16097,-2.35906 12.98994,-3.62313 4.41643,-1.46071 7.55233,-2.87156 11.06078,-4.02929 7.26663,-2.3937 11.92207,-4.4387 11.92207,-4.4387 0,0 -2.32996,2.17413 -7.47718,5.63269 -2.55778,1.70218 -6.34159,3.4482 -9.48619,5.54983 -2.78086,1.86878 -5.65535,4.30583 -8.59223,6.27297 -2.91965,1.9551 -6.06613,4.03664 -8.84793,5.89539 -3.14366,2.11167 -6.2842,4.06068 -8.82287,5.77089 -5.16633,3.45052 -7.58745,5.82745 -7.58745,5.82745 0,0 4.53182,-0.6213 11.61436,-1.45276 3.59626,-0.41672 7.19158,-0.84349 11.5138,-1.35038 3.97693,-0.46883 8.17571,-0.92154 12.15265,-1.39037 4.30404,-0.50489 8.18165,-1.05407 11.77697,-1.48083 7.08254,-0.83146 12.34002,-1.35015 12.34002,-1.35015 0,0 -3.37926,2.34052 -7.90237,5.40566 -2.39989,1.6239 -5.07206,3.08508 -7.79934,4.93781 -2.72822,1.8427 -5.14093,3.72162 -7.53987,5.35556 -4.52312,3.06514 -8.15861,6.002 -8.15861,6.002 0,0 4.69319,-0.46663 11.43981,-1.748 3.40918,-0.64971 6.39782,-2.06461 10.49285,-2.84065 3.76981,-0.71989 8.73083,-1.85514 12.51881,-2.57704 4.09503,-0.77604 7.91812,-1.31921 11.34548,-1.97092 6.72845,-1.27937 11.72833,-2.19573 11.72833,-2.19573 0,0 -3.73241,1.90267 -8.83704,5.03192 -2.60543,1.58569 -4.56435,4.38845 -7.67231,6.2933 -2.86578,1.74627 -6.10383,3.04664 -8.96961,4.79291 -3.10796,1.90485 -6.73198,3.59268 -9.31923,5.17637 -5.12281,3.13124 -9.16198,4.89527 -9.16198,4.89527 0,0 4.07757,0.0172 11.63647,0.35051 3.72446,0.16766 9.31292,0.82982 13.9219,1.03186 4.07538,0.18984 8.41742,0.48217 12.7137,0.67811 4.29533,0.18589 8.68153,0.36176 12.75598,0.54157 4.60991,0.21208 9.78876,-0.16607 13.51323,0.002 7.55984,0.34339 10.80659,1.48686 10.80659,1.48686 0,0 -4.01565,2.01504 -10.43311,5.04554 -3.25181,1.54536 -8.35697,2.5139 -12.25952,4.36432 -3.58673,1.69386 -5.85053,4.37807 -9.43727,6.07194 -3.90255,1.85041 -7.38366,3.88769 -10.63547,5.43305 -6.39929,3.02849 -10.84648,3.96508 -10.84648,3.96508 0,0 5.93033,0.97952 14.25812,1.28898 4.238,0.16178 9.61862,-0.21832 14.68567,-0.0262 4.66161,0.17595 9.07698,0.66308 13.75676,0.83703 5.06705,0.19212 9.79717,-0.66407 14.03517,-0.50229 8.30962,0.31146 13.35985,1.49959 13.35985,1.49959 0,0 -5.20879,1.82195 -13.13874,3.99459 -4.04581,1.10537 -7.49692,2.28721 -12.33103,3.60122 -4.45719,1.22173 -9.92115,1.69218 -14.36016,2.91191 -4.83411,1.314 -9.51148,3.32084 -13.53912,4.42421 -7.93089,2.1626 -13.39691,3.98248 -13.39691,3.98248 0,0 3.46387,1.10939 8.30085,3.54849 2.46627,1.23965 5.72342,3.08193 8.67129,4.56268 2.71663,1.36422 4.51716,3.33664 7.21561,4.70286 2.94881,1.49078 6.12375,2.06394 8.57185,3.30559 4.83698,2.4391 8.3159,3.70914 8.3159,3.70914 0,0 -5.66038,0.72542 -13.61591,0.86185 -4.23453,0.0712 -9.13232,0.50963 -13.95401,0.58465 -4.80258,0.0831 -9.54817,-0.20537 -13.7827,-0.13421 -7.93829,0.12439 -13.43266,0.46631 -13.43266,0.46631 0,0 2.93599,1.74581 8.68476,4.51047 2.904,1.40443 6.28419,2.20856 9.78352,3.89227 3.21075,1.54307 6.7509,4.05412 9.96259,5.60723 3.49839,1.67367 6.40615,3.11826 9.31015,4.52269 5.74783,2.75462 9.61596,4.65128 9.61596,4.65128 0,0 -4.53128,-0.35262 -11.61582,-0.71798 -3.78275,-0.20181 -9.33763,-0.30972 -13.63579,-0.52574 -4.27998,-0.21801 -7.47651,-0.43373 -11.24014,-0.62751 -7.10271,-0.36335 -12.18793,-0.55347 -12.18793,-0.55347 0,0 2.05594,2.54278 4.59895,6.75643 1.30206,2.13896 2.8116,4.92457 4.3559,7.49333 1.43273,2.35787 2.7242,5.16753 4.13876,7.52741 1.56247,2.56675 3.06066,4.64351 4.36177,6.77243 2.54301,4.21364 4.7237,7.10788 4.7237,7.10788 0,0 -5.12569,-0.62187 -11.27784,-1.61751 -3.28021,-0.52097 -6.67104,-1.24278 -10.39868,-1.83616 -3.72858,-0.60342 -7.45746,-1.01407 -10.73861,-1.54508 -6.16939,-0.9836 -11.19068,-1.07932 -11.19068,-1.07932 0,0 2.29248,2.32397 3.9651,6.65385 0.89632,2.31556 1.33398,5.02659 2.35128,7.65344 1.01635,2.61681 1.82716,5.19541 2.72255,7.50093 1.67355,4.33992 2.98137,7.71586 2.98137,7.71586 l -0.0718,0.0181"
       style="fill:none;stroke:#1a1a1a;stroke-width:3.92118192"
       id="path3750" />
    <text
       xml:space="preserve"
       style="font-style:normal;font-variant:normal;font-weight:bold;font-stretch:normal;font-size:90px;line-height:125%;font-family:'Comic Sans MS';-inkscape-font-specification:'Comic Sans MS Bold';letter-spacing:0px;word-spacing:0px;fill:#d91404;fill-opacity:0.98823529;stroke:none;stroke-width:1px;stroke-linecap:butt;stroke-linejoin:miter;stroke-opacity:1;"
       x="180.85471"
       y="603.80042"
       id="text4162"
       sodipodi:linespacing="125%"
       transform="matrix(1.0151503,-0.11075958,-0.13678535,1,0,0)"><tspan
         sodipodi:role="line"
         id="tspan4164"
         x="180.85471"
         y="603.80042"
         style="font-style:normal;font-variant:normal;font-weight:bold;font-stretch:normal;font-size:90px;font-family:'Comic Sans MS';-inkscape-font-specification:'Comic Sans MS Bold';fill:#d91404;fill-opacity:0.98823529;">Enhance!</tspan></text>
    <text
       transform="matrix(1.0151503,-0.11075958,-0.13678535,0.99999999,0,0)"
       sodipodi:linespacing="125%"
       id="text4187"
       y="607.16241"
       x="184.12221"
       style="font-style:normal;font-variant:normal;font-weight:bold;font-stretch:normal;font-size:90px;line-height:125%;font-family:'Comic Sans MS';-inkscape-font-specification:'Comic Sans MS Bold';letter-spacing:0px;word-spacing:0px;fill:none;fill-opacity:0.98823529;stroke:#000000;stroke-width:4;stroke-linecap:butt;stroke-linejoin:miter;stroke-miterlimit:4;stroke-dasharray:none;stroke-opacity:1"
       xml:space="preserve"><tspan
         style="font-style:normal;font-variant:normal;font-weight:bold;font-stretch:normal;font-size:90px;font-family:'Comic Sans MS';-inkscape-font-specification:'Comic Sans MS Bold';fill:none;fill-opacity:0.98823529;stroke:#000000;stroke-width:4;stroke-miterlimit:4;stroke-dasharray:none;stroke-opacity:1"
         y="607.16241"
         x="184.12221"
         id="tspan4189"
         sodipodi:role="line">Enhance!</tspan></text>
  </g>
  <metadata
     id="metadata26">
    <rdf:RDF>
      <cc:Work>
        <dc:format>image/svg+xml</dc:format>
        <dc:type
           rdf:resource="http://purl.org/dc/dcmitype/StillImage" />
        <cc:license
           rdf:resource="http://creativecommons.org/licenses/publicdomain/" />
        <dc:publisher>
          <cc:Agent
             rdf:about="http://openclipart.org/">
            <dc:title>Openclipart</dc:title>
          </cc:Agent>
        </dc:publisher>
        <dc:title></dc:title>
        <dc:date>2011-08-22T13:15:00</dc:date>
        <dc:description>VIntage 1940's syle comic book sound effect on tanned paper with bad, out-of-register printing.</dc:description>
        <dc:source>https://openclipart.org/detail/157471/pow-comic-book-sound-effect-by-studio_hades</dc:source>
        <dc:creator>
          <cc:Agent>
            <dc:title>studio_hades</dc:title>
          </cc:Agent>
        </dc:creator>
        <dc:subject>
          <rdf:Bag>
            <rdf:li>1940's</rdf:li>
            <rdf:li>Comic Book</rdf:li>
            <rdf:li>Headline</rdf:li>
            <rdf:li>POW</rdf:li>
            <rdf:li>Sound Effect</rdf:li>
            <rdf:li>Vintage</rdf:li>
          </rdf:Bag>
        </dc:subject>
      </cc:Work>
      <cc:License
         rdf:about="http://creativecommons.org/licenses/publicdomain/">
        <cc:permits
           rdf:resource="http://creativecommons.org/ns#Reproduction" />
        <cc:permits
           rdf:resource="http://creativecommons.org/ns#Distribution" />
        <cc:permits
           rdf:resource="http://creativecommons.org/ns#DerivativeWorks" />
      </cc:License>
    </rdf:RDF>
  </metadata>
</svg>
